<svg xmlns="http://www.w3.org/2000/svg" viewBox="0 0 560 380" width="560" height="380" role="img" aria-label="Recommended portfolio allocation: 40% Domestic large-cap, 15% Domestic growth, 20% International, 10% Gold, 15% Pension tax saving">
<title>Recommended 10-Year Portfolio Allocation for Shanghai Couples (Age 28-32)</title>
<desc>Donut chart showing recommended asset allocation for a Shanghai young couple investing over 2026-2036. Domestic large-cap 40%, Domestic growth 15%, International (QDII) 20%, Gold 10%, Pension tax saving benefit 15%. Source: author illustration based on the framework in this guide, 2026.</desc>
<style>
  :root { --fg: #1f2937; --fg-min: #374151; --grid: rgba(0,0,0,0.08); --axis: rgba(0,0,0,0.32); }
  @media (prefers-color-scheme: dark) {
    :root { --fg: #f3f4f6; --fg-min: #9ca3af; --grid: rgba(255,255,255,0.08); --axis: rgba(255,255,255,0.32); }
  }
  text { fill: var(--fg); }
  .lbl  { fill: var(--fg-min); opacity: 0.8; }
  .op35 { fill: var(--fg-min); opacity: 0.35; }
  .op85 { fill: var(--fg-min); opacity: 0.85; }
</style>
<g>
  <!-- Background circle -->
  <circle cx="260" cy="190" r="120" stroke="var(--grid)" stroke-width="44" fill="none"/>
  <!-- Donut slices using path elements for perfect tiling -->
  <path d="M 140.00 190.00 A 120 120 0 0 1 357.08 119.47 L 321.49 145.33 A 76 76 0 0 0 184.00 190.00 Z" fill="#f97316"/>
  <path d="M 357.08 119.47 A 120 120 0 0 1 374.13 227.08 L 332.28 213.49 A 76 76 0 0 0 321.49 145.33 Z" fill="#38bdf8"/>
  <path d="M 374.13 227.08 A 120 120 0 0 1 260.00 310.00 L 260.00 266.00 A 76 76 0 0 0 332.28 213.49 Z" fill="#a78bfa"/>
  <path d="M 260.00 310.00 A 120 120 0 0 1 189.47 287.08 L 215.33 251.49 A 76 76 0 0 0 260.00 266.00 Z" fill="#22c55e"/>
  <path d="M 189.47 287.08 A 120 120 0 0 1 140.00 190.00 L 184.00 190.00 A 76 76 0 0 0 215.33 251.49 Z" fill="#fb923c"/>
</g>
<text x="260" y="180" text-anchor="middle" font-size="13" font-weight="700">Recommended</text>
<text x="260" y="200" text-anchor="middle" font-size="13" font-weight="700">Allocation</text>
<rect x="20" y="330" width="14" height="14" rx="3" fill="#f97316"/>
<text class="op85" x="40" y="342" font-size="11">Domestic large-cap (40%)</text>
<rect x="200" y="330" width="14" height="14" rx="3" fill="#38bdf8"/>
<text class="op85" x="220" y="342" font-size="11">Domestic growth (15%)</text>
<rect x="370" y="330" width="14" height="14" rx="3" fill="#a78bfa"/>
<text class="op85" x="390" y="342" font-size="11">International (20%)</text>
<rect x="20" y="358" width="14" height="14" rx="3" fill="#22c55e"/>
<text class="op85" x="40" y="370" font-size="11">Gold (10%)</text>
<rect x="200" y="358" width="14" height="14" rx="3" fill="#fb923c"/>
<text class="op85" x="220" y="370" font-size="11">Pension tax saving (15%)</text>
<text class="op35" x="280" y="372" text-anchor="middle" font-size="10">Source: Author illustration, 2026</text>
</svg>
