<svg viewBox="0 0 560 340" xmlns="http://www.w3.org/2000/svg" role="img" aria-label="Bar chart of non-merge changesets per kernel release from 6.12 to 7.1">
  <rect width="560" height="340" fill="#0d1117" rx="12"/>
  <text x="280" y="30" fill="#c9d1d9" font-family="system-ui,sans-serif" font-size="15" font-weight="600" text-anchor="middle">Non-Merge Changesets Per Release</text>
  <text x="280" y="47" fill="#8b949e" font-family="system-ui,sans-serif" font-size="11" text-anchor="middle">6.12 → 7.1 (LWN.net, 2026)</text>
  <line x1="70" y1="75" x2="530" y2="75" stroke="#21262d" stroke-width="1"/>
  <line x1="70" y1="130" x2="530" y2="130" stroke="#21262d" stroke-width="1"/>
  <line x1="70" y1="185" x2="530" y2="185" stroke="#21262d" stroke-width="1"/>
  <line x1="70" y1="240" x2="530" y2="240" stroke="#21262d" stroke-width="1"/>
  <line x1="70" y1="295" x2="530" y2="295" stroke="#30363d" stroke-width="1"/>
  <text x="62" y="79" fill="#8b949e" font-family="system-ui,sans-serif" font-size="10" text-anchor="end">20k</text>
  <text x="62" y="134" fill="#8b949e" font-family="system-ui,sans-serif" font-size="10" text-anchor="end">15k</text>
  <text x="62" y="189" fill="#8b949e" font-family="system-ui,sans-serif" font-size="10" text-anchor="end">10k</text>
  <text x="62" y="244" fill="#8b949e" font-family="system-ui,sans-serif" font-size="10" text-anchor="end">5k</text>
  <text x="62" y="299" fill="#8b949e" font-family="system-ui,sans-serif" font-size="10" text-anchor="end">0</text>
  <rect x="100" y="174" width="52" height="121" rx="4" fill="#58a6ff"/>
  <text x="126" y="166" fill="#e6edf3" font-family="system-ui,sans-serif" font-size="10" font-weight="600" text-anchor="middle">12,340</text>
  <rect x="180" y="86" width="52" height="209" rx="4" fill="#3fb950"/>
  <text x="206" y="78" fill="#3fb950" font-family="system-ui,sans-serif" font-size="10" font-weight="700" text-anchor="middle">19,314</text>
  <rect x="260" y="171" width="52" height="124" rx="4" fill="#58a6ff"/>
  <text x="286" y="163" fill="#e6edf3" font-family="system-ui,sans-serif" font-size="10" font-weight="600" text-anchor="middle">12,596</text>
  <rect x="340" y="138" width="52" height="157" rx="4" fill="#d2a8ff"/>
  <text x="366" y="130" fill="#d2a8ff" font-family="system-ui,sans-serif" font-size="10" font-weight="600" text-anchor="middle">~16,000</text>
  <rect x="420" y="140" width="52" height="155" rx="4" fill="#3fb950"/>
  <text x="446" y="132" fill="#3fb950" font-family="system-ui,sans-serif" font-size="10" font-weight="700" text-anchor="middle">15,849</text>
  <text x="126" y="316" fill="#8b949e" font-family="system-ui,sans-serif" font-size="11" text-anchor="middle">6.12</text>
  <text x="206" y="316" fill="#8b949e" font-family="system-ui,sans-serif" font-size="11" text-anchor="middle">6.13</text>
  <text x="286" y="316" fill="#8b949e" font-family="system-ui,sans-serif" font-size="11" text-anchor="middle">6.15</text>
  <text x="366" y="316" fill="#d2a8ff" font-family="system-ui,sans-serif" font-size="11" font-weight="600" text-anchor="middle">7.0</text>
  <text x="446" y="316" fill="#3fb950" font-family="system-ui,sans-serif" font-size="11" font-weight="700" text-anchor="middle">7.1</text>
  <rect x="170" y="52" width="60" height="16" rx="3" fill="#3fb950" opacity="0.15"/>
  <text x="200" y="64" fill="#3fb950" font-family="system-ui,sans-serif" font-size="9" font-weight="600" text-anchor="middle">record</text>
</svg>
