<svg xmlns="http://www.w3.org/2000/svg" viewBox="0 0 460 420" width="460" height="420" role="img" aria-label="Shanghai talent-housing support by Five New Town district as proportion of the combined subsidy envelope">
<title>Approximate Talent-Housing Subsidy by Shanghai New-Town District, 2025</title>
<desc>Donut chart. Share of total approximate subsidy pool by district. Songjiang ~¥300k, Qingpu ~¥200k, Fengxian ~¥150k, Jinshan ~¥120k, Baoshan-outer ~¥100k. Combined envelope ~¥870k.</desc>
<style>
  :root { --fg: #1f2937; --fg-min: #374151; --grid: rgba(0,0,0,0.08); --axis: rgba(0,0,0,0.32); }
  @media (prefers-color-scheme: dark) {
    :root { --fg: #f3f4f6; --fg-min: #9ca3af; --grid: rgba(255,255,255,0.08); --axis: rgba(255,255,255,0.32); }
  }
  text { fill: var(--fg); }
  .tick { fill: var(--fg-min); opacity: 0.55; }
  .lbl  { fill: var(--fg-min); opacity: 0.8; }
  .op35 { fill: var(--fg-min); opacity: 0.35; }
  .line-grid { stroke: var(--grid); stroke-width: 0.3; }
  .axis     { stroke: var(--axis); stroke-width: 1; }
</style>
<g>
  <!-- Background circle -->
  <circle cx="220" cy="200" r="110" stroke="var(--grid)" stroke-width="36" fill="none"/>
  <!-- Donut slices using path elements for perfect tiling -->
  <path d="M 110.00 200.00 A 110 110 0 0 1 279.26 107.33 L 259.87 137.66 A 74 74 0 0 0 146.00 200.00 Z" fill="#f97316"/>
  <path d="M 279.26 107.33 A 110 110 0 0 1 319.37 247.18 L 286.85 231.74 A 74 74 0 0 0 259.87 137.66 Z" fill="#fb923c"/>
  <path d="M 319.37 247.18 A 110 110 0 0 1 225.18 309.88 L 223.49 273.92 A 74 74 0 0 0 286.85 231.74 Z" fill="#38bdf8"/>
  <path d="M 225.18 309.88 A 110 110 0 0 1 139.55 275.02 L 165.88 250.47 A 74 74 0 0 0 223.49 273.92 Z" fill="#a78bfa"/>
  <path d="M 139.55 275.02 A 110 110 0 0 1 110.04 203.07 L 146.03 202.07 A 74 74 0 0 0 165.88 250.47 Z" fill="#22c55e"/>
  <text class="lbl" y="-6"  text-anchor="middle" font-size="14" font-weight="800">~870k</text>
  <text class="op35" y="14" text-anchor="middle" font-size="10">combined envelope</text>
</g>
<g font-family="Inter, system-ui, sans-serif" font-size="10" class="fg">
  <rect x="30"  y="358" width="10" height="10" fill="#f97316" rx="2"/>
  <text class="lbl" x="44"  y="368">Songjiang (¥300k)</text>
  <rect x="170" y="358" width="10" height="10" fill="#fb923c" rx="2"/>
  <text class="lbl" x="184" y="368">Qingpu (¥200k)</text>
  <rect x="310" y="358" width="10" height="10" fill="#38bdf8" rx="2"/>
  <text class="lbl" x="324" y="368">Fengxian (¥150k)</text>
  <rect x="30"  y="384" width="10" height="10" fill="#a78bfa" rx="2"/>
  <text class="lbl" x="44"  y="394">Jinshan (¥120k)</text>
  <rect x="170" y="384" width="10" height="10" fill="#22c55e" rx="2"/>
  <text class="lbl" x="184" y="394">Baoshan outer (¥100k)</text>
</g>
<text class="op35" x="230" y="412" text-anchor="middle" font-size="9">Source: Shanghai municipal talent-housing programmes, 2025 (approximate, eligibility-dependent)</text>
</svg>
